# xmcd
#
# Track frame offsets:
# 150
# 8402
# 20222
# 31597
# 43555
# 58442
# 73017
# 85177
# 98215
# 116192
# 126592
# 139675
# 154345
# 165367
# 177900
# 189205
#
# Disc length: 2662 seconds
#
#
# Revision: 0
# Processed by: cddbd v1.5.1PL2 Copyright (c) Steve Scherf et al.
# Submitted via: FreeRIP 2.944 
#
DISCID=d50a6410
DTITLE=Lucille Starr - Mississippi
DYEAR=1991
DGENRE=Cajun
TTITLE0=I'll Go Steppin' Too
TTITLE1=Are You Teasing Me
TTITLE2=Pick Me Up On Your Way Down
TTITLE3=Crazy Arms
TTITLE4=Hey Mister Wind
TTITLE5=That's How Long I'll Love You
TTITLE6=Colinda
TTITLE7=The French Song
TTITLE8=Mississippi
TTITLE9=Ecstasy
TTITLE10=I'm Not The Woman I Want To Be
TTITLE11=The Best Of The Blues
TTITLE12=Bonjour Tristesse (Hello Sadness)
TTITLE13=I'm So Lonesome I Could Cry
TTITLE14=I'll Be There
TTITLE15=Jolie Jacqueline
EXTD=Koch International\nCD 322 733 G1\n
EXTT0=
EXTT1=
EXTT2=
EXTT3=
EXTT4=
EXTT5=
EXTT6=
EXTT7=
EXTT8=
EXTT9=
EXTT10=
EXTT11=
EXTT12=
EXTT13=
EXTT14=
EXTT15=
PLAYORDER=
